<svg width="18" height="18" viewBox="0 0 18 18" fill="#e65f78" xmlns="http://www.w3.org/2000/svg">
<path fill-rule="evenodd" clip-rule="evenodd" d="M0 2C0 0.895431 0.895431 0 2 0H16C17.1046 0 18 0.895431 18 2V16C18 17.1046 17.1046 18 16 18H2C0.895431 18 0 17.1046 0 16V2ZM6.05037 12.5357C5.65985 12.9262 5.02668 12.9262 4.63616 12.5357C4.24563 12.1451 4.24563 11.512 4.63616 11.1214L6.75748 9.00012L4.63616 6.8788C4.24563 6.48828 4.24563 5.85511 4.63616 5.46459C5.02668 5.07406 5.65985 5.07406 6.05037 5.46459L8.8788 8.29302C9.26932 8.68354 9.26932 9.3167 8.8788 9.70723L6.05037 12.5357ZM11.0001 11.0001C10.4478 11.0001 10.0001 11.4478 10.0001 12.0001C10.0001 12.5524 10.4478 13.0001 11.0001 13.0001H13.0001C13.5524 13.0001 14.0001 12.5524 14.0001 12.0001C14.0001 11.4478 13.5524 11.0001 13.0001 11.0001H11.0001Z" fill="#09244B"/>
</svg>
