<svg width="48" height="48" viewBox="0 0 48 48" fill="#000" xmlns="http://www.w3.org/2000/svg">
<path fill-rule="evenodd" clip-rule="evenodd" d="M48 0H0V48H48V0ZM10.7738 14.9066C13.0735 14.9066 14.9378 13.0423 14.9378 10.7426C14.9378 8.44289 13.0735 6.57861 10.7738 6.57861C8.4741 6.57861 6.60982 8.44289 6.60982 10.7426C6.60982 13.0423 8.4741 14.9066 10.7738 14.9066ZM18.7513 17.9839H25.6524V21.1453C25.6524 21.1453 27.5251 17.3999 32.6204 17.3999C37.1657 17.3999 40.931 19.639 40.931 26.464V40.856H33.7795V28.2079C33.7795 24.1818 31.63 23.739 29.9921 23.739C26.593 23.739 26.011 26.671 26.011 28.7331V40.856H18.7513V17.9839ZM14.4037 17.9839H7.14395V40.856H14.4037V17.9839Z" fill="black"/>
</svg>
