<svg width="142" height="95" viewBox="0 0 142 95" fill="#26ab6a" xmlns="http://www.w3.org/2000/svg">
<path d="M19.9641 87.3292C55.5916 72.8279 88.1275 54.0888 111.01 22.0997C74.6883 39.1669 38.3562 56.2445 2.03465 73.3117C1.42473 72.8384 0.814811 72.3547 0.204895 71.8815C1.91897 66.7288 3.17036 61.3657 5.41023 56.4548C16.7252 31.6901 36.3898 16.5158 61.7644 7.95599C86.6658 -0.435621 112.282 -0.929863 138.099 0.815759C139.276 0.899885 141.243 2.64551 141.306 3.7076C142.473 22.9515 141.947 41.8694 130.748 58.8209C116.468 80.4414 95.6253 91.1885 70.6608 93.6177C54.6767 95.174 38.4298 94.7954 22.7823 89.6848C21.9936 89.4219 21.226 89.1064 20.4478 88.8119C20.2796 88.3282 20.1218 87.834 19.9641 87.3292Z" fill="#26AB6A"/>
</svg>
